<svg width="28" height="28" viewBox="0 0 28 28" fill="none" xmlns="http://www.w3.org/2000/svg">
<path d="M11.7071 3.29289C11.3166 2.90237 10.6834 2.90237 10.2929 3.29289L5.29289 8.29289C4.90237 8.68342 4.90237 9.31658 5.29289 9.70711L10.2929 14.7071C10.6834 15.0976 11.3166 15.0976 11.7071 14.7071C12.0976 14.3166 12.0976 13.6834 11.7071 13.2929L8.414 9.999L14.5 10C17.5376 10 20 12.4624 20 15.5C20 18.5376 17.5376 21 14.5 21H10C9.44772 21 9 21.4477 9 22C9 22.5523 9.44772 23 10 23H14.5C18.6421 23 22 19.6421 22 15.5C22 11.3579 18.6421 8 14.5 8L8.416 7.999L11.7071 4.70711C12.0676 4.34662 12.0953 3.77939 11.7903 3.3871L11.7071 3.29289Z" fill="#2688EB"/>
</svg>
