<svg width="28" height="28" viewBox="0 0 28 28" fill="none" xmlns="http://www.w3.org/2000/svg">
<path d="M17.9257 3.00171C19.8839 3.02239 20.8804 3.23341 21.9137 3.78602C22.9028 4.31498 23.685 5.0972 24.214 6.08629C24.7666 7.11957 24.9776 8.11609 24.9983 10.0743V17.9257C24.9776 19.8839 24.7666 20.8804 24.214 21.9137C23.685 22.9028 22.9028 23.685 21.9137 24.214C20.8804 24.7666 19.8839 24.9776 17.9257 24.9983H10.0743C8.11609 24.9776 7.11957 24.7666 6.08629 24.214C5.0972 23.685 4.31498 22.9028 3.78602 21.9137C3.23341 20.8804 3.02239 19.8839 3.00171 17.9257V10.0743C3.02239 8.11609 3.23341 7.11957 3.78602 6.08629C4.31498 5.0972 5.0972 4.31498 6.08629 3.78602C7.11957 3.23341 8.11609 3.02239 10.0743 3.00171H17.9257ZM9.85233 5.00488C8.37304 5.03293 7.71068 5.18534 7.02948 5.54964C6.38894 5.89221 5.89221 6.38894 5.54964 7.02948C5.18534 7.71068 5.03293 8.37304 5.00488 9.85233V18.1477C5.03293 19.627 5.18534 20.2893 5.54964 20.9705C5.89221 21.6111 6.38894 22.1078 7.02948 22.4504C7.71068 22.8147 8.37304 22.9671 9.85233 22.9951H18.1477C19.627 22.9671 20.2893 22.8147 20.9705 22.4504C21.6111 22.1078 22.1078 21.6111 22.4504 20.9705C22.8147 20.2893 22.9671 19.627 22.9951 18.1477V9.85233C22.9671 8.37304 22.8147 7.71068 22.4504 7.02948C22.1078 6.38894 21.6111 5.89221 20.9705 5.54964C20.2893 5.18534 19.627 5.03293 18.1477 5.00488H9.85233Z" fill="#2688EB"/>
<mask id="mask0_7_42" style="mask-type:alpha" maskUnits="userSpaceOnUse" x="5" y="5" width="18" height="18">
<path d="M9.85233 5.00488C8.37305 5.03293 7.71068 5.18534 7.02949 5.54965C6.38894 5.89222 5.89222 6.38894 5.54965 7.02949C5.18534 7.71068 5.03293 8.37305 5.00488 9.85233V18.1477C5.03293 19.627 5.18534 20.2893 5.54965 20.9705C5.89222 21.6111 6.38894 22.1078 7.02949 22.4504C7.71068 22.8147 8.37305 22.9671 9.85233 22.9951H18.1477C19.627 22.9671 20.2893 22.8147 20.9705 22.4504C21.6111 22.1078 22.1078 21.6111 22.4504 20.9705C22.8147 20.2893 22.9671 19.627 22.9951 18.1477V9.85233C22.9671 8.37305 22.8147 7.71068 22.4504 7.02949C22.1078 6.38894 21.6111 5.89222 20.9705 5.54965C20.2893 5.18534 19.627 5.03293 18.1477 5.00488H9.85233Z" fill="#3F8AE0"/>
</mask>
<g mask="url(#mask0_7_42)">
<circle cx="14" cy="31.5" r="12" stroke="#2688EB" stroke-width="2"/>
<path d="M14 7.5C16.6242 7.5 18.75 9.62584 18.75 12.25C18.75 14.8742 16.6242 17 14 17C11.3758 17 9.25 14.8742 9.25 12.25C9.25 9.62584 11.3758 7.5 14 7.5ZM14 9.5C12.4804 9.5 11.25 10.7304 11.25 12.25C11.25 13.7696 12.4804 15 14 15C15.5196 15 16.75 13.7696 16.75 12.25C16.75 10.7304 15.5196 9.5 14 9.5Z" fill="#2688EB"/>
</g>
<path d="M14 7.5C16.6242 7.5 18.75 9.62584 18.75 12.25C18.75 14.8742 16.6242 17 14 17C11.3758 17 9.25 14.8742 9.25 12.25C9.25 9.62584 11.3758 7.5 14 7.5ZM14 9.5C12.4804 9.5 11.25 10.7304 11.25 12.25C11.25 13.7696 12.4804 15 14 15C15.5196 15 16.75 13.7696 16.75 12.25C16.75 10.7304 15.5196 9.5 14 9.5Z" fill="#2688EB"/>
<path fill-rule="evenodd" clip-rule="evenodd" d="M21.9137 3.78602C20.8804 3.23341 19.8839 3.02239 17.9257 3.00171H10.0743C8.11609 3.02239 7.11957 3.23341 6.08629 3.78602C5.0972 4.31498 4.31498 5.0972 3.78602 6.08629C3.23341 7.11957 3.02239 8.11609 3.00171 10.0743V17.9257C3.02239 19.8839 3.23341 20.8804 3.78602 21.9137C4.31498 22.9028 5.0972 23.685 6.08629 24.214C7.11957 24.7666 8.11609 24.9776 10.0743 24.9983H17.9257C19.8839 24.9776 20.8804 24.7666 21.9137 24.214C22.9028 23.685 23.685 22.9028 24.214 21.9137C24.7666 20.8804 24.9776 19.8839 24.9983 17.9257V10.0743C24.9776 8.11609 24.7666 7.11957 24.214 6.08629C23.685 5.0972 22.9028 4.31498 21.9137 3.78602ZM7.02948 5.54964C7.71068 5.18534 8.37304 5.03293 9.85233 5.00488H18.1477C19.627 5.03293 20.2893 5.18534 20.9705 5.54964C21.6111 5.89221 22.1078 6.38894 22.4504 7.02948C22.8147 7.71068 22.9671 8.37304 22.9951 9.85233V18.1477C22.9671 19.627 22.8147 20.2893 22.4504 20.9705C22.3698 21.1211 22.2808 21.2637 22.1833 21.3983C19.9489 19.5859 17.1012 18.5 14 18.5C10.8988 18.5 8.05114 19.5859 5.81668 21.3983C5.71924 21.2637 5.63018 21.1211 5.54964 20.9705C5.18534 20.2893 5.03293 19.627 5.00488 18.1477V9.85233C5.03293 8.37304 5.18534 7.71068 5.54964 7.02948C5.89221 6.38894 6.38894 5.89221 7.02948 5.54964ZM14 7.5C16.6242 7.5 18.75 9.62584 18.75 12.25C18.75 14.8742 16.6242 17 14 17C11.3758 17 9.25 14.8742 9.25 12.25C9.25 9.62584 11.3758 7.5 14 7.5ZM9.85233 22.9951H18.1477C19.317 22.9729 19.9758 22.8731 20.5371 22.6523C18.7095 21.2998 16.4482 20.5 14 20.5C11.5518 20.5 9.29049 21.2998 7.46294 22.6523C8.02415 22.8731 8.68304 22.9729 9.85233 22.9951ZM11.25 12.25C11.25 10.7304 12.4804 9.5 14 9.5C15.5196 9.5 16.75 10.7304 16.75 12.25C16.75 13.7696 15.5196 15 14 15C12.4804 15 11.25 13.7696 11.25 12.25Z" fill="#2688EB"/>
</svg>
